<?xml version="1.0" encoding="UTF-8"?>
<svg id="a" data-name="Camada 1" xmlns="http://www.w3.org/2000/svg" width="1215.722" height="554.103" viewBox="0 0 1215.722 554.103">
  <polygon points="689.164 36.134 687.444 34.807 682.794 36.351 682.208 36.345 677.692 34.913 675.85 36.083 674.936 42.938 675.605 44.3 680.945 47.394 682.503 46.496 684.062 47.394 689.402 44.3 690.071 42.938 689.164 36.134" stroke-width="0"/>
  <g>
    <path d="m680.946,46.308l-4.623-2.679-.418-.85.818-6.137,1.103-.7,3.805,1.207.595.813v7.61l-1.28.738Zm-.425-7.723l-2.242-.711-.609,4.566,3.744,2.17-.893-.904v-5.121Z" fill="#fff" stroke-width="0"/>
    <path d="m688.684,43.629l-4.623,2.679-1.28-.738v-7.61l.595-.813,3.89-1.292,1.017.785.818,6.137-.418.85Zm-1.956-5.755l-2.242.711v5.121l-.893.904,3.744-2.17-.609-4.566Z" fill="#fff" stroke-width="0"/>
  </g>
  <g>
    <polygon points="679.645 39.469 678.828 39.1 678.486 42.384 679.401 42.838 679.645 39.469" fill="#fff" stroke-width="0"/>
    <polygon points="685.283 39.355 686.101 38.986 686.442 42.27 685.527 42.725 685.283 39.355" fill="#fff" stroke-width="0"/>
  </g>
</svg>